<svg id="a934cae2-51ec-4d48-b057-103ea90841f7" data-name="Capa 1" xmlns="http://www.w3.org/2000/svg" width="1340.3" height="1093.5" viewBox="0 0 1340.3 1093.5">
  <defs>
    <style>
      .ac20d347-ccc2-4156-b026-447678cb05e4 {
        fill: #fefefe;
      }

      .a491e819-5e0f-4a7b-8981-1e74ad759635 {
        fill: #ef1919;
      }

      .ea722e35-af64-4195-9e21-4666321870b7 {
        fill: #febc21;
      }

      .af204af5-85d5-45fe-8f5b-c93e24beccc9 {
        fill: #fee25b;
      }

      .fdb8126b-0996-40d0-b39b-a9dc5a30f580 {
        fill: #c85e40;
      }

      .be04268a-48f4-4925-becc-d72f7d0ac37c {
        fill: #a88323;
      }

      .ac6d05b0-c9b4-4696-824c-36d3e2b529be {
        fill: #010101;
      }

      .e4d4b71f-9b5e-4504-a629-a66853fcc764 {
        fill: #010000;
      }
    </style>
  </defs>
  <title>logo</title>
  <g>
    <path class="ac20d347-ccc2-4156-b026-447678cb05e4" d="M664.6,1093.5l-72.1-74.6L576.1,1002a11,11,0,0,0-5.4-3.2L451,970.1c-3.1-.7-3.8-1.4-2.8-4.5,3.9-12.7,7.4-25.5,11.3-38.2,1.1-3.4.7-4.6-3-5.7-26.3-7.7-49.8-20.3-68.5-40.8-21.6-23.4-33-51.5-37.4-82.7a170.8,170.8,0,0,1-1.2-39.8c.8-7.4,4.1-12.9,10.8-16.1,1.8-.9,3.1-1.2,1.7-3.8-12.7-22.4-17.7-46.7-17.1-72.3,0-.8-.1-1.6-.2-3.1a218.1,218.1,0,0,1-26.3,15.8c-21.5,10.6-44.6,15.2-68.3,16.9-16.9,1.2-33.8,2.9-50.8,2.3-33.7-1.2-65.7-9.4-96.4-22.8-9.1-4-18-8.5-27-12.7a8.9,8.9,0,0,1-3.8-3.1q-27.7-36.9-55.6-73.7a6.3,6.3,0,0,1-1.3-5.5q12-66,23.8-132c.9-5.2,1.3-10.6,2.9-15.6,2.6-7.8.3-13.9-3.6-20.5-8.2-13.7-15.8-27.7-23.5-41.7C5.8,354.3,2.5,336.5.9,318.4c-2.4-26.8-.3-53.3,10.3-78.3,19.6-46.2,55-73.8,103.2-85.9,15.9-4.1,32.1-5.2,48.4-6.1,4.6-.2,7-1.3,7.8-6.4,1.9-10.8,2.1-10.6,12.9-8.8L288,149.6h1.8c-.9-8.8-.1-17.7-7.5-24.5-2.7-2.4-4.2-6-6.9-8.5-5-4.8-5.3-10.3-4.6-16.8,2.8-24.1,5.3-48.2,7.7-72.4.4-3.9,1.5-5.1,5.5-5.6,31.4-3.6,62.8-7.7,94.1-11.3,17.2-2.1,32.7,2.3,46,13.5l4.2,3.3C430.3,20,432.2,13,434,6c.6-2.7,1.5-3.9,4.6-3.7,29.5,1.4,59.1,2.4,88.7,4.1,18.3,1,34.4,8.1,48.1,21.7,1.1-6,2.2-11.3,2.9-16.6.3-2.4.9-3.4,3.5-3.6,29.8-1.8,59.5-3.8,89.2-5.7C681.8,1.5,692.6,1,703.3,0c3.2-.2,4.4,1,5.2,3.7,1.6,5.4,3.5,10.7,5.1,16.1.8,2.7,1.9,3.9,5.1,3.6,19.9-1.7,39.8-3,59.6-4.9,5.5-.5,9.2.2,11.1,5.8.7,2.2,2.1,4.1,3.6,6.9l.8-3.3c2.5-10.7,2.5-10.7,13.2-11.5,21.4-1.7,42.8-3.3,64.1-5.1,4.5-.4,7.6.4,9.6,4.7,1,2.2,2.7,4.1,4.7,7,.8-3.3,1.8-5.9,2-8.5s2-4.5,5.3-4.7l71.7-5.6c7.1-.6,14.2-1.1,21.3-1.8,3-.3,4.2-.1,3.4,3.5-1.5,7-1.3,7,5.6,7.5,18.5,1.2,36.9,2.5,55.3,3.5,3.9.2,4.4,1.4,4.2,5-2.8,35.5-5.3,71-8.1,106.5-.4,4.4.5,5.7,5.1,5.9,17.6.6,35.1,1.7,53.2,2.7-3,9.9-5.9,19.4-8.6,28.9-.4,1.3-2,3.9,1.7,3.1,21.2-4.5,42.7-4.1,64.1-2.9,7.5.5,15,.7,22.5,1.3,2.7.2,4.1-.3,5.1-3.1s1.4-9.1,4.5-10.5,7.2,1.4,10.9,2.4l132.6,36c3.1.8,3.7,1.8,2.6,5-18.4,54.6-36.5,109.2-54.7,163.8-.8,2.4-1.7,4.2.6,6.6,24.3,25.3,35.9,55.9,36.9,90.6s-5.3,65.3-23,94.1c-9.9,16.1-21.5,31.2-32.3,46.7s-19.5,29.1-30.2,42.8c-22.4,28.8-52.4,45.6-88,52.2s-73.2,2-108.5-10.2a22.9,22.9,0,0,0-7.3-1.3c-15.6.1-31.1.1-46.7-.1-3,0-4.2.5-4.6,3.9a126.9,126.9,0,0,1-16.1,51.9c-1.3,2.2-.9,2.9,1.3,3.9a18,18,0,0,1,11,16c2.6,41.8-5.4,80.7-31.6,114.6-19.3,24.9-45.2,40.2-75.1,48.9-4,1.2-4.4,2.4-3.2,6.1,3.8,12,7.2,24.2,10.9,36.2.9,3,1.1,4.6-2.8,5.6-39.1,9.3-78.1,19-117.1,28.5a14.9,14.9,0,0,0-8.2,4.3q-41.7,43.8-83.8,87.5A35.2,35.2,0,0,0,664.6,1093.5Z"/>
    <path d="M376.2,595.9c-6.6,11.2-13.7,21.7-22.5,31.1-22.4,24-50.2,38.4-82.2,44.9-50.5,10.3-99.1,2.5-146.2-17.2-2.3-.9-4.5-2.2-6.8-2.9-14.2-4.8-24.6-14-33.3-26.2-12.8-18-27-35-40.7-52.4a7.1,7.1,0,0,1-1.6-6.4c8.8-46.7,17.5-93.4,26.4-140.1a12.9,12.9,0,0,0-1.8-9.8c-8.2-13.7-15.9-27.7-24.1-41.3s-11.3-27.3-13.2-42.1c-3.6-26.6-2.2-52.8,8.1-78,15.1-36.9,42.5-61.1,79.3-75.3,18.5-7.1,37.9-9.9,57.5-11.1l7.5-.4c7.8-.9,7.8-.9,9.7-8.8s1.6-6.9,8.2-5.9l107.4,16.6c3.1.5,4.2.3,3.7-3.1-.9-6-1.5-11.9-2.1-17.9a9,9,0,0,0-2.1-4.4c-4-5.1-7.8-10.3-12.1-15.2a10.9,10.9,0,0,1-2.6-9.1c2.6-24.7,5.3-49.3,7.7-74,.3-2.8,1.6-3.2,3.7-3.5l77.7-9.3c8.8-1,17.5-2.7,26.4-1.6,12.6,1.6,23.4,7,33.1,16.1,1.8-7,3.7-13.4,5.3-19.9.6-2.5,1.4-3.9,4.5-3.8,28.4,1.4,56.9,2.3,85.3,4,15.5.8,29.2,7,40.8,17.5l1.6,1.3c.2.2.6.2,1.4.4.8-4.8,1.7-9.6,2.4-14.5.3-2.2.7-3.4,3.5-3.5L680.7,24c6.3-.4,12.6-.5,18.9-1.4,3.9-.5,5.1,1.1,6,4.4,1.4,4.8,3.3,9.4,4.5,14.2.8,3,2.1,3.8,5.2,3.5,19.4-1.6,38.8-3,58.2-4.7,4-.4,6.1.8,7.4,4.4a67.9,67.9,0,0,0,3.9,7.3,42.5,42.5,0,0,0,1.4-4.6c1.9-8.4,1.9-8.3,10.5-8.9l61.7-4.9c4.1-.4,7.4-.1,9.2,4.3.9,2.2,2.7,4.1,4.1,6.2.4-.4.7-.6.7-.8,2.8-11.3,2.9-11.1,14.1-11.9,26.2-1.9,52.4-3.8,78.5-6.1,4.4-.4,5.9.6,4.4,4.7s.2,5.4,4.6,5.6c17.4.8,34.8,2.2,52.2,3.2,4,.2,5.1,1.2,4.7,5.4-2.6,33.1-4.9,66.3-7.5,99.5-.4,4.5.8,5.6,5.2,5.7,15,.5,29.9,1.5,44.9,2.1,4.1.2,4.7,1.6,3.5,5.3-4.1,13.3-8,26.7-12,40-.3,1.1-.4,2.2-.7,3.9a150.4,150.4,0,0,1,44-13.6c17.8-2.7,35.6-1.6,53.3-.4,3.5.2,4.8-.7,6-4,3.3-9.4,3.5-9.3,13.5-6.6l127.2,33.3,4.3,1.4q-17.2,50-34.4,99.5c-6.2,18-12.4,36.1-18.9,54-1.2,3.6-.9,5.9,1.8,8.7,16.9,17.2,27.9,37.8,31.6,61.6,6.5,41.5-.2,80.4-25,115.2-16.7,23.3-33.5,46.4-50.4,69.5-21.5,29.3-50.8,46.2-86.2,53s-70.4,2.8-104.7-8.4a29,29,0,0,0-9.7-1.6q-30,.2-60,0c-3,0-4.1.3-3.8,4,2.6,26.4-1,51.7-13.9,75.3-1.6,2.9-1.4,3.9,1.6,5.3,5.4,2.5,8.3,7.3,8.7,13.1,2.8,40.3-5.3,77.4-32,109-18.1,21.5-41.7,34.2-68.5,41.2-4,1-5,2-3.6,6.2,2.9,8.3,4.8,17,7.6,25.3,1.1,3.3.1,3.9-2.7,4.6L747.4,970.9a13.9,13.9,0,0,0-7.5,4.3c-24.2,25.2-48.5,50.4-72.6,75.7-2.7,2.9-3.9,2.6-6.6-.2-24.3-25.4-48.8-50.6-73.1-75.9a13.5,13.5,0,0,0-6.8-3.7L479,946.8c-4.1-.9-4.9-2.3-3.5-6.3,2.8-8.3,4.9-16.9,7.5-25.3,1.1-3.1.4-4.1-2.8-4.9-23.1-5.9-43.9-16.1-61.3-32.6-19.6-18.5-31.4-41.4-37.2-67.4a156.3,156.3,0,0,1-3.5-50.1,16.8,16.8,0,0,1,9.7-14.1c2.1-1,2.5-1.5,1.2-3.8-16-29.5-18.3-61-12-93.4,2.4-11.8-.2-23.5-.1-35.2C377.1,607.8,376.5,601.8,376.2,595.9Z"/>
    <path class="a491e819-5e0f-4a7b-8981-1e74ad759635" d="M1021.1,550.8l7.2,15.4c-9.5,0-19.1.3-28.6-.1-25.1-.9-50.2-2.2-75.3-3.1-3.9-.1-4.6-2.3-5.6-5l-30.9-79.5c-.3-.7-.7-1.4-1-2.2-1.9.6-1.1,2-1.2,3-1.1,25.7-2.3,51.5-3.3,77.3-.1,3.5-1.3,4.5-4.8,4.3-53-3.8-106.2-2.8-159.3-2.8-3.8,0-5.4-.8-6-4.9-1.6-11.4-3.9-22.6-5.7-34-.5-3.1-1.8-4-4.9-4-24.7.1-49.3.1-74-.1-3.4,0-4.5,1.5-5.3,4.4-3.2,11.5-6.7,22.9-9.8,34.5-.9,3.1-2.1,4.1-5.3,4.1q-45.7-.1-91.5,0c-4.2.1-4.5-1.1-3.5-4.8Q533.8,474,555,394.6c4.7-17.7,9.4-35.3,14.4-52.9,1.1-4.1,1-5.9-4.1-5.5s-12.3-.1-18.5-.1c-2.4.1-3.7-.3-2.9-3.3q9.1-38.6,18-77.1c.7-3.1,2.1-3.8,5.1-3.8,54.8,0,109.6.1,164.5-.1,3.5,0,4.4,1.6,5.1,4.4l18,70q19,74.9,38.3,149.6a29.6,29.6,0,0,0,1.1,3.1c1.5-1.6,1.3-3.4,1.3-5.1l3.6-81.3c.6-13.9,1.1-27.9,1.9-41.8.1-2.8-.5-4-3.4-4s-8.3-.5-12.5-.6-3.7-.8-2.8-3.8c6.8-24.5,13.4-49,20.3-73.5,2.7-9.8,2.9-9.8,12.8-9.3,37.1,1.6,74.2,3.4,111.2,4.9,18.8.8,37.1,3.2,54.1,12.1s27.7,19.9,37.4,34.4l1.9,2.3c1.1-6.7,2-13,3.4-19.2,9.2-41.4,35.3-66.6,75.6-77.9,17.3-4.9,35.1-4.7,53-3.5,9.5.6,18.9,1.4,28.2,3.5,3.1.7,4-.9,4.9-3.4,2.9-7.6,3-7.4,10.9-5.3,26.2,7,52.4,13.8,78.6,20.6,3,.7,3.4,1.6,2.4,4.3q-17.8,53.1-35.6,106.4a12.5,12.5,0,0,1-1.1,1.8,263.6,263.6,0,0,0-60.7-27.6c-9.3-2.9-18.7-4.8-28.5-2.8a19.7,19.7,0,0,0-7.8,3.1c-6.6,4.5-7.7,13.3-2,18.9,7.8,7.6,17.6,11.8,27.4,16,17.6,7.6,34.9,15.5,51.3,25.6,29.7,18.3,46.6,44.6,48.3,79.6,1.5,29.2-4.5,56.8-22.3,80.6-20.1,27.1-47.8,41.8-80.7,47-43.8,7-85.3-1.9-125-20.6C1034,557.5,1028.2,554.4,1021.1,550.8Z"/>
    <path class="a491e819-5e0f-4a7b-8981-1e74ad759635" d="M195.7,195.1h5.5c9.7.1,9.7.1,12.4-9.1.7-2.3,1.8-2.7,4-2.3,32.7,5.1,65.4,10.3,98.1,15.2,3.8.5,4,1.8,3.1,5.1q-14.4,52-28.5,104.3c-.9,3.3-2,3.6-5.1,2.5a274.8,274.8,0,0,0-71.6-16.4,54.3,54.3,0,0,0-24.9,4c-5.5,2.3-9.4,6.1-10.1,12.5s3.6,10,8.5,12.8c9.4,5.5,19.8,8.4,30.2,11.4,22.2,6.3,44.4,12.8,64.7,24.2,30.5,17.2,47,43.8,51.4,78.1,3.1,24.2,1.2,47.9-9,70.4-14.3,32-39.1,52.9-71.4,65.1-37.5,14.1-76.1,14.5-115,6.7-21.6-4.3-42.2-11.7-62.3-20.7-2.9-1.2-3.4-2.9-2.9-5.8q9.6-51.5,19.1-102.9c.7-3.4,2-3.3,4.8-2.3,17.3,6.3,34.4,13.4,52.1,18.6s33.4,7.9,50.7,4.6c9.9-2,14.9-8.1,14.5-17.2-.3-5.8-4.1-9-8.3-11.7-9.5-6.2-20.2-9.2-31-12.2-22.6-6.1-45.2-12.5-66-23.6C83,392.8,66.4,371.8,59.5,343.6s-6.7-53.6,4.3-79.4c14.6-34.1,41.7-53.8,77-63a122.9,122.9,0,0,1,19-3.8C171.7,196.1,183.7,194.9,195.7,195.1Z"/>
    <path class="a491e819-5e0f-4a7b-8981-1e74ad759635" d="M297.8,360.7c5.7-27.8,11.3-55.3,16.9-82.8.5-2.6,2.1-2.9,4.2-3l70.3-3.8c16.6-1,33.2-2.1,49.8-2.8,3.8-.1,3.8-2.3,4.2-4.6,1.5-7.3,1.5-7.2,9-7.5l93.2-4.1c5.8-.2,5.9-.1,4.4,5.4-7.5,29.2-15.1,58.5-22.5,87.8-1.1,4.2-2.8,5.8-7.3,5.9-20.4.6-40.8,1.7-61.3,2.4-3.6.2-4.4,1.3-4.2,4.7,1.7,30.4,3.2,60.8,4.7,91.2s3,63.5,4.5,95.2c.5,9.8.5,9.8-9.5,10.2-24.2,1.1-48.5,2.2-72.8,3.5-3,.1-3.6-.6-3.7-3.4q-2.6-51.6-5.2-103.1c-1.6-30.4-3.3-60.8-4.7-91.2-.2-3.8-1.9-3.8-4.7-3.6l-57.7,3.6C303,360.8,300.7,360.7,297.8,360.7Z"/>
    <path class="ac20d347-ccc2-4156-b026-447678cb05e4" d="M837.6,152.9c-3.4,17.9-6.8,35-10.1,52.1-2,10.6-1.9,10.4-12.8,11.2-15.6,1.1-31.2,2.4-46.7,3.8-3.7.4-5.4-.5-6.6-4.3Q737.3,141.3,712.9,67a28.7,28.7,0,0,1-.9-3.7c19.6-1.5,38.9-2.9,58.3-4.5,3-.3,2.7,1.8,3.2,3.3q9.2,25.8,18.1,51.6l2.5,6.5c3.9-20.7,7.7-40.5,11.2-60.3.5-2.8,1.3-4.1,4.2-4.3l41.7-3.3c2.9-.3,3.2,1.4,3.9,3.3,6.4,18.2,12.9,36.3,19.3,54.4.3,1,.4,2,1.8,2.7,3.5-19.2,7.1-38.3,10.3-57.5.7-4.2,2-5.9,6.8-6.2,16.9-.9,33.8-2.4,50.7-3.9,3.4-.3,4.3.3,3.7,4.1-7.4,45-14.6,90.2-21.9,135.3-1.1,6.9-2.3,13.7-3.2,20.7-.3,2-1,2.7-3.1,2.9-19.2,1.3-38.5,2.7-57.7,4.4-2.9.2-2.8-1.5-3.4-3.2q-9.9-27.3-19.9-54.8C838.4,154.2,838.2,154,837.6,152.9Z"/>
    <path class="ea722e35-af64-4195-9e21-4666321870b7" d="M664.7,993.2c-2.1,1.1-2.5-1.2-3.3-2-24.1-24.7-48.4-49.4-72-74.7-5.7-6-12.1-8.6-19.6-10.4-34.4-8.1-68.7-16.4-103-24.6,6.7-24.4,14.2-48.4,21-72.7,3.3-11.9,6.5-24,10.9-35.6,1.8-4.8,0-8.8-1.2-13-6.8-22.8-13.8-45.7-20.7-68.5-3.4-11.4-6.6-22.9-9.9-34.3-.2-.7-.5-1.7.6-2.1,9.1,3.4,17,8.9,25.4,13.7q23.3,13.1,46.2,26.4c1.7,1,3.8,1.6,4.2,3.9-2.6,7.8-6.7,14.9-9.3,22.6-4.9,14-8,28.4-7.6,43A137.9,137.9,0,0,0,538,815.8a134.7,134.7,0,0,0,28.9,42.9c21.4,21.2,47,34.7,77.2,38.9,3.9.6,7.9,1,11.8,1.5a57.9,57.9,0,0,0,16.1,0c15.8-1.3,31.2-4.7,45.8-11.2A139.3,139.3,0,0,0,771,846.8c16.4-20.5,25.6-44.1,29.2-70.1.3-1.7-1-4.7,2.7-4.5,1.9,4.6,1.2,9.5.7,14.2-1.8,15.7-5.1,31-12.4,45-2,3.8,1.1,6.2.6,9.4-4.5-.1-6.7,2.6-9,6.2-22.5,34.9-54.6,55.5-95.2,63.2-5.5,1-11,1.2-16.4,1.9s-5.7.6-5.6,6.4c.5,22.3.2,44.6.3,66.9C665.9,988,666,990.7,664.7,993.2Z"/>
    <path class="ac20d347-ccc2-4156-b026-447678cb05e4" d="M743.3,202.2c-17.4,1.1-34.4,1.9-51.3,3.3-3.1.2-2.8-1.7-3.2-3.1-1.5-5.5-2.9-11-4-16.5-.4-2.3-1.3-2.9-3.6-2.7-12.6.9-25.2,1.8-37.8,2.5-2.7.1-3.3,1.5-3.7,3.7-1,5.3-2.2,10.7-3.3,16-.5,2.5-1.3,3.8-4.4,4-15.3.7-30.6,1.8-45.8,2.9-3.5.3-4.2-.5-3.5-3.8,7.5-36.9,14.8-73.8,22.3-110.7.9-4.3.4-5.4-4.3-5-9.5,1-9.5.7-7.9-8.7s3.9-21.6,5.5-32.5c.4-3.2,1.6-4.1,4.6-4.3,27.2-1.7,54.4-3.3,81.6-5.3,4.9-.3,7,.8,8.7,5.8,16.2,50.5,32.8,101,49.3,151.4C742.7,200,742.9,200.8,743.3,202.2Z"/>
    <path class="ac20d347-ccc2-4156-b026-447678cb05e4" d="M580.5,209.4c-18.6-.8-36.4-1.6-54.2-2.2-2.8-.1-3.6-1.6-4.4-3.7-4.8-12.6-9.6-25.1-14.5-37.7a11.6,11.6,0,0,0-2.5-4.4c-.5,12.7-1.1,25.3-1.5,38-.2,6.8-.1,6.8-7.1,6.5-12.6-.5-25.2-1.3-37.9-1.7-3-.1-3.2-1.1-3.1-3.7,1.5-34.2,2.8-68.4,4.3-102.7.2-4.8-.1-8-6.2-6.9-3.1.5-4.2-.7-3.1-4.3,3.7-12.9,7-25.9,10.3-39,.7-2.5,1.5-3.8,4.6-3.7,22.6,1.2,45.2,1.5,67.8,3.2,28.8,2.2,48.6,23.1,50.1,52.4,1.1,22.5-5.3,42.1-24.8,55.5-2.6,1.9-1.3,3.3-.5,5l21.1,45.6C579.4,206.6,579.8,207.7,580.5,209.4Z"/>
    <path class="ac20d347-ccc2-4156-b026-447678cb05e4" d="M424.1,123.6c10.6,6,19.8,12.6,24.1,24.2,8.3,22,2.7,43.2-14.6,55.1-6.5,4.5-13.7,6.6-21.4,7.6q-35.7,4.2-71.3,8.7c-3.7.4-5-.2-5.5-4.3-3.8-34.7-7.9-69.4-11.9-104.1-.4-3.7-2.1-3.6-4.9-3.1-6.3,1-6.2.9-5.4-5.4,1.4-12.5,2.6-25.1,3.8-37.7.3-3,1.2-4.4,4.7-4.7,25.6-3,51.1-6.4,76.7-9.2,21.9-2.5,40.2,15.4,41,39.2C439.9,103.4,435,114.6,424.1,123.6Z"/>
    <path class="ac20d347-ccc2-4156-b026-447678cb05e4" d="M897.6,765.3c11.6-1.3,21.8-2.4,32-3.8,2.5-.3,3.3.4,3.4,2.6,1.6,45.9-10.8,85.4-50.4,112.9a14.5,14.5,0,0,1-2.6,1.4c-4.1-13.6-8.1-27-12.1-40.5-6.6-22.2-13.1-44.6-19.7-66.8a11.3,11.3,0,0,1,0-6.3c11.4-38.8,22.9-77.7,34.1-116.6.9-3.1,2.4-4.5,5.3-5.7,11.9-4.6,23.7-9.5,35.5-14.3,1.8-.7,3.4-1.8,4.5,1.3,12.8,37.2,14.5,73.8-6.4,109C915.4,748.5,907.5,756.8,897.6,765.3Z"/>
    <path class="ac20d347-ccc2-4156-b026-447678cb05e4" d="M428.6,765.1c-12.4-11.5-22.3-24.2-28.9-39.4-10.5-24.2-11.1-49.3-5.8-74.8a192.6,192.6,0,0,1,5.9-21c.8-2.4,1.7-3,4.3-1.9,12,5.1,24.2,10,36.3,14.7a6.3,6.3,0,0,1,4.2,4.5q17.4,59.4,35,118.8a7.5,7.5,0,0,1,.1,4.7q-15.3,52.3-30.5,104.7c-1,3.6-2,3.1-4.5,1.4-26-17.5-40.7-42.2-47.1-72.4a152.6,152.6,0,0,1-3.1-38.7c.2-3.1.4-4.6,4.4-4C408.8,763.2,418.7,764,428.6,765.1Z"/>
    <path class="ac20d347-ccc2-4156-b026-447678cb05e4" d="M956,156.1c1.2-17.1,2.3-34.2,3.8-51.2.3-4-.8-5.1-4.4-4.8s-6-.7-5.1-5.8c2.3-12.4,3.8-24.9,5.5-37.5.4-3.5,1.6-4.3,5.4-4,15.5,1.3,31.1,2.2,46.7,3.1,2.8.1,3.7.6,3.5,3.6-2.3,28.5-4.4,57-6.5,85.5-.5,5.8-.7,11.6-1.4,17.4-.4,3.3.8,3.7,3.7,3.8,14.3.7,28.6,1.6,42.9,2.2,3.3.2,3.9.9,2.9,4.1-4.3,14-8.4,28-12.5,42-.8,2.6-1.8,3.5-4.9,3.3-25.2-1.8-50.4-3.3-75.6-4.9-1.7-.1-3.3-.4-5-.4s-3.3-1.3-3.1-3.7C953.3,191.2,954.7,173.7,956,156.1Z"/>
    <path class="ea722e35-af64-4195-9e21-4666321870b7" d="M791.5,840.8c-4.7-4.4-2-8.5,0-13.1,7.7-17.8,11.9-36.4,10.9-55.9-1.6-1.8-1.2-4.1-1.2-6.2a133.5,133.5,0,0,0-14.6-60.4c-1-2.1-2.4-4.1-2.5-6.5s2.4-2.6,3.9-3.5c22.3-13,44.7-25.8,67-38.7,1.5-.8,3.1-.9,4.6-1.5s.5,1.9.2,2.9c-9.6,33.1-19.1,66.2-29.1,99.1a35.2,35.2,0,0,0,0,22c10.1,32.9,19.7,66,29.5,99a6.2,6.2,0,0,1,.2,1.9c-1.7,1.4-3.1.2-4.5-.6l-61.2-34.9C793.2,843.6,791.7,842.7,791.5,840.8Z"/>
    <path class="ac20d347-ccc2-4156-b026-447678cb05e4" d="M542.6,699l-72-41.3c-1.2-.6-2.5-1.1-3.1-2.4l111.6-27.2A9.4,9.4,0,0,0,584,625l77-80.2c.7-.7,1.1-2.1,2.6-1.7a12.1,12.1,0,0,1,1.5,6.2c.1,24.7.1,49.5,0,74.2a17.5,17.5,0,0,1-.4,4c-.8,2.7-3.1,2.8-5.2,2.8-18.3-.1-35.6,4.4-52.3,11.7a129.6,129.6,0,0,0-36,23.8,142.4,142.4,0,0,0-24.9,29.8C545.5,697,545,699.2,542.6,699Z"/>
    <path class="af204af5-85d5-45fe-8f5b-c93e24beccc9" d="M663.5,628.5q.2-42.7.1-85.4c9.1,7.8,16.9,16.8,25.2,25.3,18,18.6,35.9,37.3,53.9,56a13.5,13.5,0,0,0,6.8,3.8l107.8,25.9a21.8,21.8,0,0,1,2.3.9l-40.5,23.7-30.4,17.6c-1.3.8-2.5,1.7-4.1,1.7s-3.3-2.5-4.3-4.1c-14.4-22-33.1-39.1-56.8-50.4a126.4,126.4,0,0,0-54.4-13.2C667.2,630.3,664.8,631.1,663.5,628.5Z"/>
    <path class="fdb8126b-0996-40d0-b39b-a9dc5a30f580" d="M791.5,840.8c10.3,6,20.5,12.1,30.8,18L857.7,879a21.4,21.4,0,0,0,2.7.9c-.2,1.8-1.8,1.7-3,2Q804,895,750.5,907.8a16.1,16.1,0,0,0-7.6,4.3q-37.2,39-74.6,77.7c-1.1,1.2-2.4,2.3-3.6,3.4-.1-16.8-.2-33.7-.2-50.5-.1-9.3.1-18.7-.2-28-.2-3.1.5-3.7,3.3-3.8A143.4,143.4,0,0,0,729,894.8c23-12.2,41.4-29.2,54.6-51.6C785.9,839.3,787.9,838.3,791.5,840.8Z"/>
    <path d="M1010.2,527.4l-26-55.6c-.8-1.7-1-2.9,1-4.1,31.5-20.1,46.2-49.8,49-86.2.1-1,.3-1.9.5-3.7a102.4,102.4,0,0,0,25.1,25.7c17.6,12.4,37.2,21.1,57,29.5,10.4,4.4,20.8,8.8,29.7,16,4.9,4,8.3,8.6,6.3,15.5s-6.7,9.9-13.3,11c-10.2,1.6-19.9-.6-29.6-3.1-18.6-4.9-35.1-14.8-52-23.6-5.1-2.5-10.1-5-15-7.9-2.8-1.6-3.7-1.1-4.7,2-8.2,25.1-16.5,50.1-24.7,75.2C1012.6,520.9,1011.5,523.7,1010.2,527.4Z"/>
    <path d="M894.1,345c8.5,1.2,17.7-.7,26.1,3.7a29.3,29.3,0,0,1,15.4,33.1A28.8,28.8,0,0,1,907.3,404c-8.1,0-16.2-.6-24.4-.7-2.7-.1-3.3-1.2-3.2-3.6.6-17.1,1.3-34.2,1.7-51.3.1-3.1,1.3-3.6,3.9-3.5S891,345,894.1,345Z"/>
    <path d="M686.5,435.9H643.6c-3.7,0-2.4-2.3-1.9-3.9q7.3-27.3,14.8-54.4c2.7-10.1,5.4-20.1,9-30.3C672.5,376.6,679.4,406,686.5,435.9Z"/>
    <path class="be04268a-48f4-4925-becc-d72f7d0ac37c" d="M655.4,900.2h17.2A39.9,39.9,0,0,1,655.4,900.2Z"/>
    <path class="ac6d05b0-c9b4-4696-824c-36d3e2b529be" d="M656.9,97.3c4.5,14.5,9.1,28.9,13.7,43.6-7.2,1.6-14.4,1.1-21.4,1.9-3.7.4-1.7-2.5-1.5-3.8,2.3-12.4,4.8-24.7,7.3-37.1l.9-4.4Z"/>
    <path class="ac6d05b0-c9b4-4696-824c-36d3e2b529be" d="M507.2,109c0-4.8.1-9.6-.1-14.4-.1-2.6.6-3.6,3.4-3.3s6.9.5,10.4.7c8.4.4,14.9,7.2,14.5,15.2A15.5,15.5,0,0,1,519.1,122l-1-.2c-3.8-.9-9.1,1.5-11.3-1.6s-.3-7.4-.3-11.2Z"/>
    <path d="M373.6,155.5c-1.1-3.3.9-4.1,3.8-4.2l9-.9a14.3,14.3,0,0,1,15,12.3,13.7,13.7,0,0,1-10.9,15.5c-3.9.7-7.9.8-11.8,1.5s-2.8-.8-3-2.6C375.1,170,374.4,162.9,373.6,155.5Z"/>
    <path class="e4d4b71f-9b5e-4504-a629-a66853fcc764" d="M372.1,118.4c-2.5.8-3.4-1-3.6-4.3a147.3,147.3,0,0,0-1.4-14.9c-.4-2.2.1-3.2,2.3-3,3.8.2,7.5-1.5,11.3-.4,5.5,1.7,8.6,6,8.3,11.5s-3.9,9.1-9.3,10.1Z"/>
    <path class="ea722e35-af64-4195-9e21-4666321870b7" d="M663.7,869.8c-14.7,0-29.4.1-44,0-10.4,0-15.7-4.6-14.9-14.7.6-8-2.1-12.1-9.2-16-23.2-12.8-39.2-31.9-44.8-58.2-6.3-29.1,1.2-55.5,18.2-79.2,20.5-28.6,48.6-45.7,83.8-49.2s65.2,7.7,90.7,31.8c18.2,17.1,30.1,37.8,34.1,62.7,5.9,36.7-9.4,69.9-41.3,89.9l-.9.5c-9.3,3.4-14,9.1-12.5,20,1,7.4-5.5,12.4-13.2,12.4C694.3,869.9,679,869.8,663.7,869.8Z"/>
    <path d="M613.8,820.4c-17.6.8-33.3-14.2-34.2-32.6s13.7-35.9,32.8-36.7c17.2-.7,33.1,14.8,34,33.1A34.3,34.3,0,0,1,613.8,820.4Z"/>
    <path d="M750.7,786c-.1,19-15.3,34.6-33.5,34.4s-33.4-15.7-33.5-34.5,15.4-34.6,33.4-34.8S750.7,766.9,750.7,786Z"/>
    <path class="ac20d347-ccc2-4156-b026-447678cb05e4" d="M628.5,671.8c15.5-.8,25.5,9.2,23.9,22.3a35.1,35.1,0,0,1-7.3,17.7c-11,13.8-25.2,22.2-42.8,22.9s-29.3-12-23-29.9S608.7,670.7,628.5,671.8Z"/>
    <path d="M692.3,733.1c3.8.3,6.4,1.5,7.7,4.6s1.2,6-1.1,8.4c-5.1,5.2-10.2,10.5-15.6,15.4-3.1,2.8-7,2.8-10.3-.2s-3.8-7.1-.9-10.3c5.2-5.6,10.7-10.9,16.2-16.1C689.4,733.8,691.3,733.5,692.3,733.1Z"/>
    <path d="M650.5,763.4a7.7,7.7,0,0,1-5.9-2.4c-4.6-4.7-9.4-9.3-14-14.1s-3.6-8.2-.4-11.4,7.6-3.2,11.4.5,9.8,9.8,14.6,14.7a6.7,6.7,0,0,1,1.3,8.2A7.2,7.2,0,0,1,650.5,763.4Z"/>
    <path d="M664.2,798.3a13,13,0,0,1,1.5,1.9c4.9,8.4,9.8,16.8,14.9,25.7H647.1Z"/>
  </g>
</svg>
